<svg width="156" height="32" viewBox="0 0 156 32" fill="none" xmlns="http://www.w3.org/2000/svg">
<g clip-path="url(#clip0_1_48)">
<rect width="32" height="32" rx="8" fill="#015604"/>
<path d="M16 29.3333C8.63599 29.3333 2.66666 23.364 2.66666 16C2.66666 8.63599 8.63599 2.66666 16 2.66666C23.364 2.66666 29.3333 8.63599 29.3333 16C29.3333 23.364 23.364 29.3333 16 29.3333ZM13.4 14.6667C13.5155 14.0996 13.7767 13.5723 14.1578 13.1368C14.5389 12.7012 15.0269 12.3724 15.5737 12.1827C16.1204 11.993 16.7072 11.949 17.2762 12.0548C17.8451 12.1607 18.3767 12.4129 18.8187 12.7867L21.0867 11.276C20.3078 10.4277 19.3014 9.8214 18.1874 9.52955C17.0734 9.23771 15.8989 9.27262 14.8042 9.63011C13.7095 9.98761 12.7408 10.6526 12.0137 11.5457C11.2867 12.4388 10.832 13.5222 10.704 14.6667H9.33332V17.3333H10.7027C10.8305 18.4781 11.2851 19.5618 12.0122 20.4552C12.7393 21.3485 13.7082 22.0137 14.8032 22.3712C15.8982 22.7288 17.0729 22.7636 18.1871 22.4715C19.3013 22.1794 20.3079 21.5727 21.0867 20.724L18.8187 19.212C18.3768 19.5857 17.8453 19.8379 17.2764 19.9439C16.7075 20.0499 16.1209 20.0059 15.5741 19.8164C15.0274 19.6268 14.5394 19.2982 14.1582 18.8628C13.777 18.4274 13.5157 17.9003 13.4 17.3333L20 17.3347V14.668H13.4V14.6667Z" fill="#CFD317"/>
</g>
<path d="M46.14 23.12C45.1 23.12 44.1 22.9533 43.14 22.62C42.1933 22.2733 41.46 21.8333 40.94 21.3L41.52 20.16C42.0133 20.64 42.6733 21.0467 43.5 21.38C44.34 21.7 45.22 21.86 46.14 21.86C47.02 21.86 47.7333 21.7533 48.28 21.54C48.84 21.3133 49.2467 21.0133 49.5 20.64C49.7667 20.2667 49.9 19.8533 49.9 19.4C49.9 18.8533 49.74 18.4133 49.42 18.08C49.1133 17.7467 48.7067 17.4867 48.2 17.3C47.6933 17.1 47.1333 16.9267 46.52 16.78C45.9067 16.6333 45.2933 16.48 44.68 16.32C44.0667 16.1467 43.5 15.92 42.98 15.64C42.4733 15.36 42.06 14.9933 41.74 14.54C41.4333 14.0733 41.28 13.4667 41.28 12.72C41.28 12.0267 41.46 11.3933 41.82 10.82C42.1933 10.2333 42.76 9.76667 43.52 9.42C44.28 9.06 45.2533 8.88 46.44 8.88C47.2267 8.88 48.0067 8.99333 48.78 9.22C49.5533 9.43333 50.22 9.73333 50.78 10.12L50.28 11.3C49.68 10.9 49.04 10.6067 48.36 10.42C47.6933 10.2333 47.0467 10.14 46.42 10.14C45.58 10.14 44.8867 10.2533 44.34 10.48C43.7933 10.7067 43.3867 11.0133 43.12 11.4C42.8667 11.7733 42.74 12.2 42.74 12.68C42.74 13.2267 42.8933 13.6667 43.2 14C43.52 14.3333 43.9333 14.5933 44.44 14.78C44.96 14.9667 45.5267 15.1333 46.14 15.28C46.7533 15.4267 47.36 15.5867 47.96 15.76C48.5733 15.9333 49.1333 16.16 49.64 16.44C50.16 16.7067 50.5733 17.0667 50.88 17.52C51.2 17.9733 51.36 18.5667 51.36 19.3C51.36 19.98 51.1733 20.6133 50.8 21.2C50.4267 21.7733 49.8533 22.24 49.08 22.6C48.32 22.9467 47.34 23.12 46.14 23.12ZM59.7047 23.1C58.798 23.1 57.978 22.8933 57.2447 22.48C56.5114 22.0533 55.9247 21.4467 55.4847 20.66C55.058 19.86 54.8447 18.8867 54.8447 17.74C54.8447 16.5933 55.058 15.6267 55.4847 14.84C55.9114 14.04 56.4914 13.4333 57.2247 13.02C57.958 12.6067 58.7847 12.4 59.7047 12.4C60.7047 12.4 61.598 12.6267 62.3847 13.08C63.1847 13.52 63.8114 14.1467 64.2647 14.96C64.718 15.76 64.9447 16.6867 64.9447 17.74C64.9447 18.8067 64.718 19.74 64.2647 20.54C63.8114 21.34 63.1847 21.9667 62.3847 22.42C61.598 22.8733 60.7047 23.1 59.7047 23.1ZM54.2847 26.88V12.5H55.6447V15.66L55.5047 17.76L55.7047 19.88V26.88H54.2847ZM59.6047 21.84C60.3514 21.84 61.018 21.6733 61.6047 21.34C62.1914 20.9933 62.658 20.5133 63.0047 19.9C63.3514 19.2733 63.5247 18.5533 63.5247 17.74C63.5247 16.9267 63.3514 16.2133 63.0047 15.6C62.658 14.9867 62.1914 14.5067 61.6047 14.16C61.018 13.8133 60.3514 13.64 59.6047 13.64C58.858 13.64 58.1847 13.8133 57.5847 14.16C56.998 14.5067 56.5314 14.9867 56.1847 15.6C55.8514 16.2133 55.6847 16.9267 55.6847 17.74C55.6847 18.5533 55.8514 19.2733 56.1847 19.9C56.5314 20.5133 56.998 20.9933 57.5847 21.34C58.1847 21.6733 58.858 21.84 59.6047 21.84ZM72.2994 23.1C71.206 23.1 70.246 22.8733 69.4194 22.42C68.5927 21.9533 67.946 21.32 67.4794 20.52C67.0127 19.7067 66.7794 18.78 66.7794 17.74C66.7794 16.7 66.9994 15.78 67.4394 14.98C67.8927 14.18 68.506 13.5533 69.2794 13.1C70.066 12.6333 70.946 12.4 71.9194 12.4C72.906 12.4 73.7794 12.6267 74.5394 13.08C75.3127 13.52 75.9194 14.1467 76.3594 14.96C76.7994 15.76 77.0194 16.6867 77.0194 17.74C77.0194 17.8067 77.0127 17.88 76.9994 17.96C76.9994 18.0267 76.9994 18.1 76.9994 18.18H67.8594V17.12H76.2394L75.6794 17.54C75.6794 16.78 75.5127 16.1067 75.1794 15.52C74.8594 14.92 74.4194 14.4533 73.8594 14.12C73.2994 13.7867 72.6527 13.62 71.9194 13.62C71.1994 13.62 70.5527 13.7867 69.9794 14.12C69.406 14.4533 68.9594 14.92 68.6394 15.52C68.3194 16.12 68.1594 16.8067 68.1594 17.58V17.8C68.1594 18.6 68.3327 19.3067 68.6794 19.92C69.0394 20.52 69.5327 20.9933 70.1594 21.34C70.7994 21.6733 71.526 21.84 72.3394 21.84C72.9794 21.84 73.5727 21.7267 74.1194 21.5C74.6794 21.2733 75.1594 20.9267 75.5594 20.46L76.3594 21.38C75.8927 21.94 75.306 22.3667 74.5994 22.66C73.906 22.9533 73.1394 23.1 72.2994 23.1ZM85.2697 12.4C86.123 12.4 86.8697 12.5667 87.5097 12.9C88.163 13.22 88.6697 13.7133 89.0297 14.38C89.403 15.0467 89.5897 15.8867 89.5897 16.9V23H88.1697V17.04C88.1697 15.9333 87.8897 15.1 87.3297 14.54C86.783 13.9667 86.0097 13.68 85.0097 13.68C84.263 13.68 83.6097 13.8333 83.0497 14.14C82.503 14.4333 82.0764 14.8667 81.7697 15.44C81.4764 16 81.3297 16.68 81.3297 17.48V23H79.9097V12.5H81.2697V15.38L81.0497 14.84C81.383 14.08 81.9164 13.4867 82.6497 13.06C83.383 12.62 84.2564 12.4 85.2697 12.4ZM97.6053 23.1C96.6053 23.1 95.7053 22.8733 94.9053 22.42C94.1186 21.9667 93.4986 21.34 93.0453 20.54C92.592 19.7267 92.3653 18.7933 92.3653 17.74C92.3653 16.6733 92.592 15.74 93.0453 14.94C93.4986 14.14 94.1186 13.52 94.9053 13.08C95.7053 12.6267 96.6053 12.4 97.6053 12.4C98.5253 12.4 99.3453 12.6067 100.065 13.02C100.799 13.4333 101.379 14.04 101.805 14.84C102.245 15.6267 102.465 16.5933 102.465 17.74C102.465 18.8733 102.252 19.84 101.825 20.64C101.399 21.44 100.819 22.0533 100.085 22.48C99.3653 22.8933 98.5386 23.1 97.6053 23.1ZM97.7053 21.84C98.452 21.84 99.1186 21.6733 99.7053 21.34C100.305 20.9933 100.772 20.5133 101.105 19.9C101.452 19.2733 101.625 18.5533 101.625 17.74C101.625 16.9133 101.452 16.1933 101.105 15.58C100.772 14.9667 100.305 14.4933 99.7053 14.16C99.1186 13.8133 98.452 13.64 97.7053 13.64C96.972 13.64 96.312 13.8133 95.7253 14.16C95.1386 14.4933 94.672 14.9667 94.3253 15.58C93.9786 16.1933 93.8053 16.9133 93.8053 17.74C93.8053 18.5533 93.9786 19.2733 94.3253 19.9C94.672 20.5133 95.1386 20.9933 95.7253 21.34C96.312 21.6733 96.972 21.84 97.7053 21.84ZM101.665 23V19.84L101.805 17.72L101.605 15.6V8.16H103.025V23H101.665ZM112.4 23.1C111.48 23.1 110.653 22.8933 109.92 22.48C109.187 22.0533 108.607 21.44 108.18 20.64C107.753 19.84 107.54 18.8733 107.54 17.74C107.54 16.5933 107.753 15.6267 108.18 14.84C108.62 14.04 109.207 13.4333 109.94 13.02C110.673 12.6067 111.493 12.4 112.4 12.4C113.4 12.4 114.293 12.6267 115.08 13.08C115.88 13.52 116.507 14.14 116.96 14.94C117.413 15.74 117.64 16.6733 117.64 17.74C117.64 18.7933 117.413 19.7267 116.96 20.54C116.507 21.34 115.88 21.9667 115.08 22.42C114.293 22.8733 113.4 23.1 112.4 23.1ZM106.98 23V8.16H108.4V15.6L108.2 17.72L108.34 19.84V23H106.98ZM112.3 21.84C113.047 21.84 113.713 21.6733 114.3 21.34C114.887 20.9933 115.353 20.5133 115.7 19.9C116.047 19.2733 116.22 18.5533 116.22 17.74C116.22 16.9133 116.047 16.1933 115.7 15.58C115.353 14.9667 114.887 14.4933 114.3 14.16C113.713 13.8133 113.047 13.64 112.3 13.64C111.553 13.64 110.88 13.8133 110.28 14.16C109.693 14.4933 109.227 14.9667 108.88 15.58C108.547 16.1933 108.38 16.9133 108.38 17.74C108.38 18.5533 108.547 19.2733 108.88 19.9C109.227 20.5133 109.693 20.9933 110.28 21.34C110.88 21.6733 111.553 21.84 112.3 21.84ZM124.815 23.1C123.801 23.1 122.888 22.8733 122.075 22.42C121.275 21.9533 120.641 21.32 120.175 20.52C119.708 19.7067 119.475 18.78 119.475 17.74C119.475 16.6867 119.708 15.76 120.175 14.96C120.641 14.16 121.275 13.5333 122.075 13.08C122.875 12.6267 123.788 12.4 124.815 12.4C125.855 12.4 126.775 12.6267 127.575 13.08C128.388 13.5333 129.021 14.16 129.475 14.96C129.941 15.76 130.175 16.6867 130.175 17.74C130.175 18.78 129.941 19.7067 129.475 20.52C129.021 21.32 128.388 21.9533 127.575 22.42C126.761 22.8733 125.841 23.1 124.815 23.1ZM124.815 21.84C125.575 21.84 126.248 21.6733 126.835 21.34C127.421 20.9933 127.881 20.5133 128.215 19.9C128.561 19.2733 128.735 18.5533 128.735 17.74C128.735 16.9133 128.561 16.1933 128.215 15.58C127.881 14.9667 127.421 14.4933 126.835 14.16C126.248 13.8133 125.581 13.64 124.835 13.64C124.088 13.64 123.421 13.8133 122.835 14.16C122.248 14.4933 121.781 14.9667 121.435 15.58C121.088 16.1933 120.915 16.9133 120.915 17.74C120.915 18.5533 121.088 19.2733 121.435 19.9C121.781 20.5133 122.248 20.9933 122.835 21.34C123.421 21.6733 124.081 21.84 124.815 21.84ZM137.354 23.1C136.34 23.1 135.427 22.8733 134.614 22.42C133.814 21.9533 133.18 21.32 132.714 20.52C132.247 19.7067 132.014 18.78 132.014 17.74C132.014 16.6867 132.247 15.76 132.714 14.96C133.18 14.16 133.814 13.5333 134.614 13.08C135.414 12.6267 136.327 12.4 137.354 12.4C138.394 12.4 139.314 12.6267 140.114 13.08C140.927 13.5333 141.56 14.16 142.014 14.96C142.48 15.76 142.714 16.6867 142.714 17.74C142.714 18.78 142.48 19.7067 142.014 20.52C141.56 21.32 140.927 21.9533 140.114 22.42C139.3 22.8733 138.38 23.1 137.354 23.1ZM137.354 21.84C138.114 21.84 138.787 21.6733 139.374 21.34C139.96 20.9933 140.42 20.5133 140.754 19.9C141.1 19.2733 141.274 18.5533 141.274 17.74C141.274 16.9133 141.1 16.1933 140.754 15.58C140.42 14.9667 139.96 14.4933 139.374 14.16C138.787 13.8133 138.12 13.64 137.374 13.64C136.627 13.64 135.96 13.8133 135.374 14.16C134.787 14.4933 134.32 14.9667 133.974 15.58C133.627 16.1933 133.454 16.9133 133.454 17.74C133.454 18.5533 133.627 19.2733 133.974 19.9C134.32 20.5133 134.787 20.9933 135.374 21.34C135.96 21.6733 136.62 21.84 137.354 21.84ZM146.733 20.28L146.773 18.46L153.313 12.5H155.053L150.433 16.92L149.633 17.6L146.733 20.28ZM145.613 23V8.16H147.033V23H145.613ZM153.753 23L149.373 17.54L150.293 16.44L155.493 23H153.753Z" fill="black"/>
<defs>
<clipPath id="clip0_1_48">
<rect width="32" height="32" fill="white"/>
</clipPath>
</defs>
</svg>
